<svg width="166" height="56" viewBox="0 0 166 56" fill="none" xmlns="http://www.w3.org/2000/svg">
<rect width="165.933" height="56" rx="4" fill="#E5ECF4"/>
<g clip-path="url(#clip0_0_3546)">
<path d="M62.7675 40H58.0075L57.3275 43H54.5675L57.9075 29H62.8675L66.2075 43H63.4475L62.7675 40ZM58.5675 37.48H62.1875L60.5675 30.32H60.2075L58.5675 37.48ZM69.1807 47H66.6607V33.08H69.1807V34.52H69.5407C69.8074 33.9733 70.194 33.5533 70.7007 33.26C71.2074 32.9533 71.854 32.8 72.6407 32.8C73.2274 32.8 73.7807 32.9133 74.3007 33.14C74.834 33.3667 75.294 33.7 75.6807 34.14C76.0807 34.5667 76.394 35.0933 76.6207 35.72C76.8607 36.3467 76.9807 37.06 76.9807 37.86V38.22C76.9807 39.0333 76.8674 39.7533 76.6407 40.38C76.414 41.0067 76.1074 41.54 75.7207 41.98C75.334 42.4067 74.874 42.7333 74.3407 42.96C73.8207 43.1733 73.254 43.28 72.6407 43.28C72.1874 43.28 71.794 43.2333 71.4607 43.14C71.1274 43.0467 70.834 42.92 70.5807 42.76C70.3407 42.6 70.134 42.42 69.9607 42.22C69.8007 42.0067 69.6607 41.7867 69.5407 41.56H69.1807V47ZM71.8207 40.88C72.6074 40.88 73.2407 40.64 73.7207 40.16C74.214 39.6667 74.4607 39 74.4607 38.16V37.92C74.4607 37.08 74.214 36.42 73.7207 35.94C73.2407 35.4467 72.6074 35.2 71.8207 35.2C71.034 35.2 70.394 35.4533 69.9007 35.96C69.4207 36.4533 69.1807 37.1067 69.1807 37.92V38.16C69.1807 38.9733 69.4207 39.6333 69.9007 40.14C70.394 40.6333 71.034 40.88 71.8207 40.88ZM80.5339 47H78.0139V33.08H80.5339V34.52H80.8939C81.1606 33.9733 81.5473 33.5533 82.0539 33.26C82.5606 32.9533 83.2073 32.8 83.9939 32.8C84.5806 32.8 85.1339 32.9133 85.6539 33.14C86.1873 33.3667 86.6473 33.7 87.0339 34.14C87.4339 34.5667 87.7473 35.0933 87.9739 35.72C88.2139 36.3467 88.3339 37.06 88.3339 37.86V38.22C88.3339 39.0333 88.2206 39.7533 87.9939 40.38C87.7673 41.0067 87.4606 41.54 87.0739 41.98C86.6873 42.4067 86.2273 42.7333 85.6939 42.96C85.1739 43.1733 84.6073 43.28 83.9939 43.28C83.5406 43.28 83.1473 43.2333 82.8139 43.14C82.4806 43.0467 82.1873 42.92 81.9339 42.76C81.6939 42.6 81.4873 42.42 81.3139 42.22C81.1539 42.0067 81.0139 41.7867 80.8939 41.56H80.5339V47ZM83.1739 40.88C83.9606 40.88 84.5939 40.64 85.0739 40.16C85.5673 39.6667 85.8139 39 85.8139 38.16V37.92C85.8139 37.08 85.5673 36.42 85.0739 35.94C84.5939 35.4467 83.9606 35.2 83.1739 35.2C82.3873 35.2 81.7473 35.4533 81.2539 35.96C80.7739 36.4533 80.5339 37.1067 80.5339 37.92V38.16C80.5339 38.9733 80.7739 39.6333 81.2539 40.14C81.7473 40.6333 82.3873 40.88 83.1739 40.88ZM96.8472 33.28C96.8472 32.72 96.6272 32.2333 96.1872 31.82C95.7605 31.4067 95.1538 31.2 94.3672 31.2C93.7005 31.2 93.1738 31.34 92.7872 31.62C92.4005 31.8867 92.2072 32.2533 92.2072 32.72C92.2072 32.96 92.2538 33.18 92.3472 33.38C92.4405 33.5667 92.6005 33.74 92.8272 33.9C93.0672 34.0467 93.3738 34.18 93.7472 34.3C94.1338 34.42 94.6205 34.5333 95.2072 34.64C96.6738 34.9067 97.7938 35.3533 98.5672 35.98C99.3405 36.6067 99.7272 37.5333 99.7272 38.76V39C99.7272 39.6533 99.6072 40.2467 99.3672 40.78C99.1405 41.3 98.8072 41.7467 98.3672 42.12C97.9272 42.4933 97.3938 42.78 96.7672 42.98C96.1405 43.18 95.4338 43.28 94.6472 43.28C93.7272 43.28 92.9138 43.1533 92.2072 42.9C91.5138 42.6333 90.9338 42.2733 90.4672 41.82C90.0005 41.3533 89.6472 40.8133 89.4072 40.2C89.1672 39.5733 89.0472 38.8933 89.0472 38.16V37.56H91.6872V38.04C91.6872 38.88 91.9272 39.5533 92.4072 40.06C92.9005 40.5533 93.6605 40.8 94.6872 40.8C95.4872 40.8 96.0805 40.6267 96.4672 40.28C96.8538 39.9333 97.0472 39.52 97.0472 39.04C97.0472 38.8133 97.0072 38.6 96.9272 38.4C96.8472 38.1867 96.7072 38 96.5072 37.84C96.3072 37.6667 96.0338 37.5133 95.6872 37.38C95.3405 37.2467 94.9005 37.1333 94.3672 37.04C93.6605 36.92 93.0138 36.7667 92.4272 36.58C91.8405 36.38 91.3272 36.12 90.8872 35.8C90.4605 35.48 90.1272 35.08 89.8872 34.6C89.6472 34.12 89.5272 33.5333 89.5272 32.84V32.72C89.5272 32.1467 89.6405 31.62 89.8672 31.14C90.1072 30.6467 90.4338 30.22 90.8472 29.86C91.2738 29.5 91.7805 29.22 92.3672 29.02C92.9672 28.82 93.6338 28.72 94.3672 28.72C95.1938 28.72 95.9272 28.84 96.5672 29.08C97.2072 29.3067 97.7405 29.62 98.1672 30.02C98.6072 30.42 98.9338 30.88 99.1472 31.4C99.3738 31.92 99.4872 32.4667 99.4872 33.04V33.76H96.8472V33.28ZM100.96 33.08H103.9V29H106.42V33.08H110V35.48H106.42V40C106.42 40.4 106.6 40.6 106.96 40.6H109.64V43H105.44C104.987 43 104.614 42.8533 104.32 42.56C104.04 42.2667 103.9 41.8933 103.9 41.44V35.48H100.96V33.08ZM122.314 38.16C122.314 38.9867 122.174 39.72 121.894 40.36C121.614 40.9867 121.234 41.52 120.754 41.96C120.274 42.3867 119.72 42.7133 119.094 42.94C118.48 43.1667 117.834 43.28 117.154 43.28C116.474 43.28 115.82 43.1667 115.194 42.94C114.58 42.7133 114.034 42.3867 113.554 41.96C113.074 41.52 112.694 40.9867 112.414 40.36C112.134 39.72 111.994 38.9867 111.994 38.16V37.92C111.994 37.1067 112.134 36.3867 112.414 35.76C112.694 35.12 113.074 34.58 113.554 34.14C114.034 33.7 114.58 33.3667 115.194 33.14C115.82 32.9133 116.474 32.8 117.154 32.8C117.834 32.8 118.48 32.9133 119.094 33.14C119.72 33.3667 120.274 33.7 120.754 34.14C121.234 34.58 121.614 35.12 121.894 35.76C122.174 36.3867 122.314 37.1067 122.314 37.92V38.16ZM117.154 40.88C117.514 40.88 117.854 40.82 118.174 40.7C118.494 40.58 118.774 40.4067 119.014 40.18C119.254 39.9533 119.44 39.68 119.574 39.36C119.72 39.0267 119.794 38.6533 119.794 38.24V37.84C119.794 37.4267 119.72 37.06 119.574 36.74C119.44 36.4067 119.254 36.1267 119.014 35.9C118.774 35.6733 118.494 35.5 118.174 35.38C117.854 35.26 117.514 35.2 117.154 35.2C116.794 35.2 116.454 35.26 116.134 35.38C115.814 35.5 115.534 35.6733 115.294 35.9C115.054 36.1267 114.86 36.4067 114.714 36.74C114.58 37.06 114.514 37.4267 114.514 37.84V38.24C114.514 38.6533 114.58 39.0267 114.714 39.36C114.86 39.68 115.054 39.9533 115.294 40.18C115.534 40.4067 115.814 40.58 116.134 40.7C116.454 40.82 116.794 40.88 117.154 40.88ZM123.467 33.08H127.667V34.52H128.027C128.214 33.9733 128.527 33.5533 128.967 33.26C129.42 32.9533 129.96 32.8 130.587 32.8C131.574 32.8 132.367 33.1133 132.967 33.74C133.567 34.3533 133.867 35.2933 133.867 36.56V37L131.267 37.24V36.96C131.267 36.4133 131.127 35.98 130.847 35.66C130.567 35.3267 130.147 35.16 129.587 35.16C129.027 35.16 128.587 35.3533 128.267 35.74C127.947 36.1267 127.787 36.68 127.787 37.4V40.6H130.067V43H123.227V40.6H125.267V35.48H123.467V33.08ZM137.52 38.86C137.533 39.1533 137.6 39.4267 137.72 39.68C137.853 39.92 138.027 40.1333 138.24 40.32C138.467 40.4933 138.72 40.6333 139 40.74C139.293 40.8333 139.6 40.88 139.92 40.88C140.547 40.88 141.027 40.7733 141.36 40.56C141.693 40.3333 141.933 40.0667 142.08 39.76L144.24 40.96C144.12 41.2133 143.953 41.48 143.74 41.76C143.527 42.0267 143.247 42.2733 142.9 42.5C142.567 42.7267 142.153 42.9133 141.66 43.06C141.18 43.2067 140.613 43.28 139.96 43.28C139.213 43.28 138.533 43.16 137.92 42.92C137.307 42.68 136.773 42.3333 136.32 41.88C135.88 41.4267 135.533 40.8733 135.28 40.22C135.04 39.5667 134.92 38.8267 134.92 38V37.88C134.92 37.12 135.047 36.4267 135.3 35.8C135.567 35.1733 135.927 34.64 136.38 34.2C136.833 33.76 137.36 33.42 137.96 33.18C138.573 32.9267 139.227 32.8 139.92 32.8C140.773 32.8 141.507 32.9533 142.12 33.26C142.733 33.5533 143.24 33.9333 143.64 34.4C144.04 34.8533 144.333 35.36 144.52 35.92C144.707 36.4667 144.8 37 144.8 37.52V38.86H137.52ZM139.9 35.08C139.26 35.08 138.74 35.2467 138.34 35.58C137.94 35.9 137.68 36.2733 137.56 36.7H142.24C142.16 36.2333 141.907 35.8467 141.48 35.54C141.067 35.2333 140.54 35.08 139.9 35.08Z" fill="#495567"/>
<path d="M58.5175 17.5H56.1375L55.7975 19H54.4175L56.0875 12H58.5675L60.2375 19H58.8575L58.5175 17.5ZM56.4175 16.24H58.2275L57.4175 12.66H57.2375L56.4175 16.24ZM60.3741 14.04H61.7341L62.9041 18.4H63.0841L64.2541 14.04H65.6141L64.1941 19H61.7941L60.3741 14.04ZM69.6107 18.28C69.4774 18.5933 69.2907 18.8167 69.0507 18.95C68.8107 19.0767 68.5307 19.14 68.2107 19.14C67.9107 19.14 67.6274 19.0833 67.3607 18.97C67.1007 18.8567 66.8707 18.69 66.6707 18.47C66.4707 18.25 66.3107 17.9833 66.1907 17.67C66.0774 17.3567 66.0207 17 66.0207 16.6V16.44C66.0207 16.0467 66.0774 15.6933 66.1907 15.38C66.304 15.0667 66.4574 14.8 66.6507 14.58C66.844 14.36 67.0674 14.1933 67.3207 14.08C67.5807 13.96 67.8574 13.9 68.1507 13.9C68.504 13.9 68.7874 13.96 69.0007 14.08C69.2207 14.2 69.394 14.3867 69.5207 14.64H69.7007V14.04H70.9607V17.5C70.9607 17.7 71.0507 17.8 71.2307 17.8H71.4207V19H70.5607C70.334 19 70.1474 18.9333 70.0007 18.8C69.8607 18.6667 69.7907 18.4933 69.7907 18.28H69.6107ZM68.4907 17.94C68.8574 17.94 69.1507 17.82 69.3707 17.58C69.5907 17.3333 69.7007 17 69.7007 16.58V16.46C69.7007 16.04 69.5907 15.71 69.3707 15.47C69.1507 15.2233 68.8574 15.1 68.4907 15.1C68.124 15.1 67.8307 15.2233 67.6107 15.47C67.3907 15.71 67.2807 16.04 67.2807 16.46V16.58C67.2807 17 67.3907 17.3333 67.6107 17.58C67.8307 17.82 68.124 17.94 68.4907 17.94ZM72.1673 17.8H73.8473V15.24H72.2873V14.04H75.1073V17.8H76.5473V19H72.1673V17.8ZM75.4173 12.57C75.4173 12.7033 75.3906 12.83 75.3373 12.95C75.2906 13.0633 75.224 13.1633 75.1373 13.25C75.0506 13.33 74.9473 13.3967 74.8273 13.45C74.714 13.4967 74.594 13.52 74.4673 13.52C74.334 13.52 74.2106 13.4967 74.0973 13.45C73.984 13.3967 73.884 13.33 73.7973 13.25C73.7106 13.1633 73.6406 13.0633 73.5873 12.95C73.5406 12.83 73.5173 12.7033 73.5173 12.57C73.5173 12.4367 73.5406 12.3133 73.5873 12.2C73.6406 12.08 73.7106 11.98 73.7973 11.9C73.884 11.8133 73.984 11.7467 74.0973 11.7C74.2106 11.6467 74.334 11.62 74.4673 11.62C74.594 11.62 74.714 11.6467 74.8273 11.7C74.9473 11.7467 75.0506 11.8133 75.1373 11.9C75.224 11.98 75.2906 12.08 75.3373 12.2C75.3906 12.3133 75.4173 12.4367 75.4173 12.57ZM77.7239 17.8H79.4639V13.2H77.7839V12H80.7239V17.8H82.3439V19H77.7239V17.8ZM86.6405 18.28C86.5072 18.5933 86.3205 18.8167 86.0805 18.95C85.8405 19.0767 85.5605 19.14 85.2405 19.14C84.9405 19.14 84.6572 19.0833 84.3905 18.97C84.1305 18.8567 83.9005 18.69 83.7005 18.47C83.5005 18.25 83.3405 17.9833 83.2205 17.67C83.1072 17.3567 83.0505 17 83.0505 16.6V16.44C83.0505 16.0467 83.1072 15.6933 83.2205 15.38C83.3339 15.0667 83.4872 14.8 83.6805 14.58C83.8739 14.36 84.0972 14.1933 84.3505 14.08C84.6105 13.96 84.8872 13.9 85.1805 13.9C85.5339 13.9 85.8172 13.96 86.0305 14.08C86.2505 14.2 86.4239 14.3867 86.5505 14.64H86.7305V14.04H87.9905V17.5C87.9905 17.7 88.0805 17.8 88.2605 17.8H88.4505V19H87.5905C87.3639 19 87.1772 18.9333 87.0305 18.8C86.8905 18.6667 86.8205 18.4933 86.8205 18.28H86.6405ZM85.5205 17.94C85.8872 17.94 86.1805 17.82 86.4005 17.58C86.6205 17.3333 86.7305 17 86.7305 16.58V16.46C86.7305 16.04 86.6205 15.71 86.4005 15.47C86.1805 15.2233 85.8872 15.1 85.5205 15.1C85.1539 15.1 84.8605 15.2233 84.6405 15.47C84.4205 15.71 84.3105 16.04 84.3105 16.46V16.58C84.3105 17 84.4205 17.3333 84.6405 17.58C84.8605 17.82 85.1539 17.94 85.5205 17.94ZM90.1572 19H88.8972V12H90.1572V14.76H90.3372C90.4705 14.4867 90.6638 14.2767 90.9172 14.13C91.1705 13.9767 91.4938 13.9 91.8872 13.9C92.1805 13.9 92.4572 13.9567 92.7172 14.07C92.9838 14.1833 93.2138 14.35 93.4072 14.57C93.6072 14.7833 93.7638 15.0467 93.8772 15.36C93.9972 15.6733 94.0572 16.03 94.0572 16.43V16.61C94.0572 17.0167 94.0005 17.3767 93.8872 17.69C93.7738 18.0033 93.6205 18.27 93.4272 18.49C93.2338 18.7033 93.0038 18.8667 92.7372 18.98C92.4772 19.0867 92.1938 19.14 91.8872 19.14C91.6605 19.14 91.4638 19.1167 91.2972 19.07C91.1305 19.0233 90.9838 18.96 90.8572 18.88C90.7372 18.8 90.6338 18.71 90.5472 18.61C90.4672 18.5033 90.3972 18.3933 90.3372 18.28H90.1572V19ZM91.4772 17.94C91.8705 17.94 92.1872 17.82 92.4272 17.58C92.6738 17.3333 92.7972 17 92.7972 16.58V16.46C92.7972 16.04 92.6738 15.71 92.4272 15.47C92.1872 15.2233 91.8705 15.1 91.4772 15.1C91.0838 15.1 90.7638 15.2267 90.5172 15.48C90.2772 15.7267 90.1572 16.0533 90.1572 16.46V16.58C90.1572 16.9867 90.2772 17.3167 90.5172 17.57C90.7638 17.8167 91.0838 17.94 91.4772 17.94ZM94.7538 17.8H96.4938V13.2H94.8138V12H97.7538V17.8H99.3738V19H94.7538V17.8ZM101.57 16.93C101.577 17.0767 101.61 17.2133 101.67 17.34C101.737 17.46 101.824 17.5667 101.93 17.66C102.044 17.7467 102.17 17.8167 102.31 17.87C102.457 17.9167 102.61 17.94 102.77 17.94C103.084 17.94 103.324 17.8867 103.49 17.78C103.657 17.6667 103.777 17.5333 103.85 17.38L104.93 17.98C104.87 18.1067 104.787 18.24 104.68 18.38C104.574 18.5133 104.434 18.6367 104.26 18.75C104.094 18.8633 103.887 18.9567 103.64 19.03C103.4 19.1033 103.117 19.14 102.79 19.14C102.417 19.14 102.077 19.08 101.77 18.96C101.464 18.84 101.197 18.6667 100.97 18.44C100.75 18.2133 100.577 17.9367 100.45 17.61C100.33 17.2833 100.27 16.9133 100.27 16.5V16.44C100.27 16.06 100.334 15.7133 100.46 15.4C100.594 15.0867 100.774 14.82 101 14.6C101.227 14.38 101.49 14.21 101.79 14.09C102.097 13.9633 102.424 13.9 102.77 13.9C103.197 13.9 103.564 13.9767 103.87 14.13C104.177 14.2767 104.43 14.4667 104.63 14.7C104.83 14.9267 104.977 15.18 105.07 15.46C105.164 15.7333 105.21 16 105.21 16.26V16.93H101.57ZM102.76 15.04C102.44 15.04 102.18 15.1233 101.98 15.29C101.78 15.45 101.65 15.6367 101.59 15.85H103.93C103.89 15.6167 103.764 15.4233 103.55 15.27C103.344 15.1167 103.08 15.04 102.76 15.04ZM116.674 16.58C116.674 16.9933 116.604 17.36 116.464 17.68C116.324 17.9933 116.134 18.26 115.894 18.48C115.654 18.6933 115.377 18.8567 115.064 18.97C114.757 19.0833 114.434 19.14 114.094 19.14C113.754 19.14 113.427 19.0833 113.114 18.97C112.807 18.8567 112.534 18.6933 112.294 18.48C112.054 18.26 111.864 17.9933 111.724 17.68C111.584 17.36 111.514 16.9933 111.514 16.58V16.46C111.514 16.0533 111.584 15.6933 111.724 15.38C111.864 15.06 112.054 14.79 112.294 14.57C112.534 14.35 112.807 14.1833 113.114 14.07C113.427 13.9567 113.754 13.9 114.094 13.9C114.434 13.9 114.757 13.9567 115.064 14.07C115.377 14.1833 115.654 14.35 115.894 14.57C116.134 14.79 116.324 15.06 116.464 15.38C116.604 15.6933 116.674 16.0533 116.674 16.46V16.58ZM114.094 17.94C114.274 17.94 114.444 17.91 114.604 17.85C114.764 17.79 114.904 17.7033 115.024 17.59C115.144 17.4767 115.237 17.34 115.304 17.18C115.377 17.0133 115.414 16.8267 115.414 16.62V16.42C115.414 16.2133 115.377 16.03 115.304 15.87C115.237 15.7033 115.144 15.5633 115.024 15.45C114.904 15.3367 114.764 15.25 114.604 15.19C114.444 15.13 114.274 15.1 114.094 15.1C113.914 15.1 113.744 15.13 113.584 15.19C113.424 15.25 113.284 15.3367 113.164 15.45C113.044 15.5633 112.947 15.7033 112.874 15.87C112.807 16.03 112.774 16.2133 112.774 16.42V16.62C112.774 16.8267 112.807 17.0133 112.874 17.18C112.947 17.34 113.044 17.4767 113.164 17.59C113.284 17.7033 113.424 17.79 113.584 17.85C113.744 17.91 113.914 17.94 114.094 17.94ZM118.75 19H117.49V14.04H118.75V14.78H118.93C119.044 14.5 119.227 14.2833 119.48 14.13C119.734 13.9767 120.03 13.9 120.37 13.9C120.61 13.9 120.834 13.94 121.04 14.02C121.254 14.0933 121.44 14.21 121.6 14.37C121.76 14.53 121.884 14.7333 121.97 14.98C122.064 15.2267 122.11 15.52 122.11 15.86V19H120.85V16.18C120.85 15.8267 120.764 15.55 120.59 15.35C120.424 15.1433 120.18 15.04 119.86 15.04C119.487 15.04 119.207 15.1667 119.02 15.42C118.84 15.6667 118.75 16 118.75 16.42V19ZM128.703 14.04H130.173V12H131.433V14.04H133.223V15.24H131.433V17.5C131.433 17.7 131.523 17.8 131.703 17.8H133.043V19H130.943C130.717 19 130.53 18.9267 130.383 18.78C130.243 18.6333 130.173 18.4467 130.173 18.22V15.24H128.703V14.04ZM135.8 19H134.54V12H135.8V14.84H135.98C136.107 14.54 136.293 14.31 136.54 14.15C136.787 13.9833 137.09 13.9 137.45 13.9C137.697 13.9 137.923 13.94 138.13 14.02C138.337 14.1 138.517 14.22 138.67 14.38C138.823 14.54 138.943 14.7467 139.03 15C139.117 15.2467 139.16 15.54 139.16 15.88V19H137.9V16.18C137.9 15.8267 137.813 15.55 137.64 15.35C137.473 15.1433 137.23 15.04 136.91 15.04C136.537 15.04 136.257 15.1667 136.07 15.42C135.89 15.6667 135.8 16 135.8 16.42V19ZM141.307 16.93C141.313 17.0767 141.347 17.2133 141.407 17.34C141.473 17.46 141.56 17.5667 141.667 17.66C141.78 17.7467 141.907 17.8167 142.047 17.87C142.193 17.9167 142.347 17.94 142.507 17.94C142.82 17.94 143.06 17.8867 143.227 17.78C143.393 17.6667 143.513 17.5333 143.587 17.38L144.667 17.98C144.607 18.1067 144.523 18.24 144.417 18.38C144.31 18.5133 144.17 18.6367 143.997 18.75C143.83 18.8633 143.623 18.9567 143.377 19.03C143.137 19.1033 142.853 19.14 142.527 19.14C142.153 19.14 141.813 19.08 141.507 18.96C141.2 18.84 140.933 18.6667 140.707 18.44C140.487 18.2133 140.313 17.9367 140.187 17.61C140.067 17.2833 140.007 16.9133 140.007 16.5V16.44C140.007 16.06 140.07 15.7133 140.197 15.4C140.33 15.0867 140.51 14.82 140.737 14.6C140.963 14.38 141.227 14.21 141.527 14.09C141.833 13.9633 142.16 13.9 142.507 13.9C142.933 13.9 143.3 13.9767 143.607 14.13C143.913 14.2767 144.167 14.4667 144.367 14.7C144.567 14.9267 144.713 15.18 144.807 15.46C144.9 15.7333 144.947 16 144.947 16.26V16.93H141.307ZM142.497 15.04C142.177 15.04 141.917 15.1233 141.717 15.29C141.517 15.45 141.387 15.6367 141.327 15.85H143.667C143.627 15.6167 143.5 15.4233 143.287 15.27C143.08 15.1167 142.817 15.04 142.497 15.04Z" fill="#495567"/>
</g>
<path fill-rule="evenodd" clip-rule="evenodd" d="M30.8386 16.2326C31.8694 15.0264 33.6384 14.1001 35.1518 14C35.4055 15.649 34.7047 17.2641 33.7785 18.4058C32.7885 19.6324 31.0799 20.5807 29.4263 20.5315C29.1246 18.9521 29.8982 17.3268 30.8386 16.2326ZM35.4997 20.5333C37.514 20.5333 39.6468 21.5773 41.1645 23.3763C36.1891 25.9705 36.9951 32.7283 42.0224 34.5378C41.3313 35.9952 40.9996 36.645 40.1082 37.936C38.8649 39.7367 37.1137 41.9805 34.9401 41.9963C34.0466 42.0052 33.4605 41.7496 32.8284 41.474C32.0959 41.1545 31.3017 40.8082 29.8961 40.8157C28.4983 40.8222 27.6914 41.1643 26.9489 41.4791C26.3005 41.7539 25.7012 42.008 24.8003 41.9998C22.6285 41.9823 20.9682 39.9574 19.7248 38.1567C16.2504 33.1242 15.8835 27.2159 18.0274 24.0734C19.5525 21.8418 21.9577 20.5368 24.2166 20.5368C25.4205 20.5368 26.3908 20.8657 27.3154 21.1791C28.1569 21.4643 28.9607 21.7367 29.8683 21.7367C30.7082 21.7367 31.3987 21.488 32.1519 21.2167C33.0556 20.8913 34.0495 20.5333 35.4997 20.5333Z" fill="#495567"/>
<defs>
<clipPath id="clip0_0_3546">
<rect width="94.968" height="39" fill="white" transform="translate(54.2675 8)"/>
</clipPath>
</defs>
</svg>
