<svg width="166" height="56" fill="none" xmlns="http://www.w3.org/2000/svg"><rect width="165.933" height="56" rx="4" fill="#E5ECF4"/><g clip-path="url(#a)" fill="#495567"><path d="M62.767 40h-4.76l-.68 3h-2.76l3.34-14h4.96l3.34 14h-2.76l-.68-3Zm-4.2-2.52h3.62l-1.62-7.16h-.36l-1.64 7.16ZM69.181 47h-2.52V33.08h2.52v1.44h.36a2.873 2.873 0 0 1 1.16-1.26c.506-.307 1.153-.46 1.94-.46.586 0 1.14.113 1.66.34.533.227.993.56 1.38 1 .4.427.713.953.94 1.58.24.627.36 1.34.36 2.14v.36c0 .813-.114 1.533-.34 2.16a4.937 4.937 0 0 1-.92 1.6 3.898 3.898 0 0 1-1.38.98c-.52.213-1.087.32-1.7.32-.454 0-.847-.047-1.18-.14a3.308 3.308 0 0 1-.88-.38c-.24-.16-.447-.34-.62-.54a4.99 4.99 0 0 1-.42-.66h-.36V47Zm2.64-6.12c.786 0 1.42-.24 1.9-.72.493-.493.74-1.16.74-2v-.24c0-.84-.247-1.5-.74-1.98-.48-.493-1.114-.74-1.9-.74-.787 0-1.427.253-1.92.76-.48.493-.72 1.147-.72 1.96v.24c0 .813.24 1.473.72 1.98.493.493 1.133.74 1.92.74ZM80.534 47h-2.52V33.08h2.52v1.44h.36a2.874 2.874 0 0 1 1.16-1.26c.507-.307 1.153-.46 1.94-.46.587 0 1.14.113 1.66.34.533.227.993.56 1.38 1 .4.427.713.953.94 1.58.24.627.36 1.34.36 2.14v.36c0 .813-.113 1.533-.34 2.16a4.935 4.935 0 0 1-.92 1.6 3.896 3.896 0 0 1-1.38.98c-.52.213-1.087.32-1.7.32-.453 0-.847-.047-1.18-.14a3.31 3.31 0 0 1-.88-.38c-.24-.16-.447-.34-.62-.54a4.99 4.99 0 0 1-.42-.66h-.36V47Zm2.64-6.12c.787 0 1.42-.24 1.9-.72.493-.493.74-1.16.74-2v-.24c0-.84-.247-1.5-.74-1.98-.48-.493-1.113-.74-1.9-.74-.787 0-1.427.253-1.92.76-.48.493-.72 1.147-.72 1.96v.24c0 .813.24 1.473.72 1.98.493.493 1.133.74 1.92.74Zm13.673-7.6c0-.56-.22-1.047-.66-1.46-.427-.413-1.033-.62-1.82-.62-.666 0-1.193.14-1.58.42-.387.267-.58.633-.58 1.1 0 .24.047.46.14.66.094.187.254.36.48.52.24.147.547.28.92.4.387.12.874.233 1.46.34 1.467.267 2.587.713 3.36 1.34.774.627 1.16 1.553 1.16 2.78V39a4.29 4.29 0 0 1-.36 1.78 3.65 3.65 0 0 1-1 1.34c-.44.373-.973.66-1.6.86-.626.2-1.333.3-2.12.3-.92 0-1.733-.127-2.44-.38-.693-.267-1.273-.627-1.74-1.08a4.678 4.678 0 0 1-1.06-1.62 5.657 5.657 0 0 1-.36-2.04v-.6h2.64v.48c0 .84.24 1.513.72 2.02.493.493 1.254.74 2.28.74.8 0 1.394-.173 1.78-.52.387-.347.58-.76.58-1.24 0-.227-.04-.44-.12-.64-.08-.213-.22-.4-.42-.56-.2-.173-.473-.327-.82-.46a7.215 7.215 0 0 0-1.32-.34 14.305 14.305 0 0 1-1.94-.46c-.587-.2-1.1-.46-1.54-.78-.427-.32-.76-.72-1-1.2s-.36-1.067-.36-1.76v-.12c0-.573.114-1.1.34-1.58.24-.493.567-.92.98-1.28a4.66 4.66 0 0 1 1.52-.84c.6-.2 1.267-.3 2-.3.827 0 1.56.12 2.2.36.64.227 1.174.54 1.6.94.44.4.767.86.98 1.38.227.52.34 1.067.34 1.64v.72h-2.64v-.48Zm4.113-.2h2.94V29h2.52v4.08H110v2.4h-3.58V40c0 .4.18.6.54.6h2.68V43h-4.2c-.453 0-.826-.147-1.12-.44-.28-.293-.42-.667-.42-1.12v-5.96h-2.94v-2.4Zm21.354 5.08c0 .827-.14 1.56-.42 2.2-.28.627-.66 1.16-1.14 1.6a5.072 5.072 0 0 1-1.66.98c-.614.227-1.26.34-1.94.34-.68 0-1.334-.113-1.96-.34a5.106 5.106 0 0 1-1.64-.98c-.48-.44-.86-.973-1.14-1.6-.28-.64-.42-1.373-.42-2.2v-.24c0-.813.14-1.533.42-2.16.28-.64.66-1.18 1.14-1.62a4.93 4.93 0 0 1 1.64-1 5.715 5.715 0 0 1 1.96-.34c.68 0 1.326.113 1.94.34a4.9 4.9 0 0 1 1.66 1c.48.44.86.98 1.14 1.62.28.627.42 1.347.42 2.16v.24Zm-5.16 2.72c.36 0 .7-.06 1.02-.18.32-.12.6-.293.84-.52.24-.227.426-.5.56-.82.146-.333.22-.707.22-1.12v-.4c0-.413-.074-.78-.22-1.1a2.332 2.332 0 0 0-.56-.84c-.24-.227-.52-.4-.84-.52a2.88 2.88 0 0 0-1.02-.18c-.36 0-.7.06-1.02.18-.32.12-.6.293-.84.52-.24.227-.434.507-.58.84-.134.32-.2.687-.2 1.1v.4c0 .413.066.787.2 1.12.146.32.34.593.58.82.24.227.52.4.84.52.32.12.66.18 1.02.18Zm6.313-7.8h4.2v1.44h.36c.187-.547.5-.967.94-1.26.453-.307.993-.46 1.62-.46.987 0 1.78.313 2.38.94.6.613.9 1.553.9 2.82V37l-2.6.24v-.28c0-.547-.14-.98-.42-1.3-.28-.333-.7-.5-1.26-.5s-1 .193-1.32.58c-.32.387-.48.94-.48 1.66v3.2h2.28V43h-6.84v-2.4h2.04v-5.12h-1.8v-2.4Zm14.053 5.78c.013.293.08.567.2.82.133.24.307.453.52.64.227.173.48.313.76.42.293.093.6.14.92.14.627 0 1.107-.107 1.44-.32.333-.227.573-.493.72-.8l2.16 1.2c-.12.253-.287.52-.5.8a3.536 3.536 0 0 1-.84.74c-.333.227-.747.413-1.24.56-.48.147-1.047.22-1.7.22-.747 0-1.427-.12-2.04-.36a4.612 4.612 0 0 1-1.6-1.04 4.88 4.88 0 0 1-1.04-1.66c-.24-.653-.36-1.393-.36-2.22v-.12c0-.76.127-1.453.38-2.08a4.85 4.85 0 0 1 1.08-1.6c.453-.44.98-.78 1.58-1.02a5.084 5.084 0 0 1 1.96-.38c.853 0 1.587.153 2.2.46.613.293 1.12.673 1.52 1.14.4.453.693.96.88 1.52.187.547.28 1.08.28 1.6v1.34h-7.28Zm2.38-3.78c-.64 0-1.16.167-1.56.5-.4.32-.66.693-.78 1.12h4.68c-.08-.467-.333-.853-.76-1.16-.413-.307-.94-.46-1.58-.46ZM58.517 17.5h-2.38l-.34 1.5h-1.38l1.67-7h2.48l1.67 7h-1.38l-.34-1.5Zm-2.1-1.26h1.81l-.81-3.58h-.18l-.82 3.58Zm3.957-2.2h1.36l1.17 4.36h.18l1.17-4.36h1.36L64.194 19h-2.4l-1.42-4.96Zm9.237 4.24c-.134.313-.32.537-.56.67-.24.127-.52.19-.84.19-.3 0-.584-.057-.85-.17-.26-.113-.49-.28-.69-.5-.2-.22-.36-.487-.48-.8a3.134 3.134 0 0 1-.17-1.07v-.16c0-.393.056-.747.17-1.06a2.47 2.47 0 0 1 .46-.8c.193-.22.416-.387.67-.5.26-.12.536-.18.83-.18.353 0 .636.06.85.18.22.12.393.307.52.56h.18v-.6h1.26v3.46c0 .2.09.3.27.3h.19V19h-.86a.8.8 0 0 1-.56-.2.686.686 0 0 1-.21-.52h-.18Zm-1.12-.34c.366 0 .66-.12.88-.36.22-.247.33-.58.33-1v-.12c0-.42-.11-.75-.33-.99-.22-.247-.514-.37-.88-.37-.367 0-.66.123-.88.37-.22.24-.33.57-.33.99v.12c0 .42.11.753.33 1 .22.24.513.36.88.36Zm3.676-.14h1.68v-2.56h-1.56v-1.2h2.82v3.76h1.44V19h-4.38v-1.2Zm3.25-5.23c0 .133-.026.26-.08.38a.911.911 0 0 1-.2.3c-.086.08-.19.147-.31.2a.935.935 0 0 1-.36.07.962.962 0 0 1-.37-.07 1.179 1.179 0 0 1-.3-.2 1.057 1.057 0 0 1-.21-.3 1.039 1.039 0 0 1 0-.75.897.897 0 0 1 .21-.3.911.911 0 0 1 .3-.2.858.858 0 0 1 .37-.08c.127 0 .247.027.36.08.12.047.224.113.31.2.087.08.154.18.2.3.054.113.08.237.08.37Zm2.307 5.23h1.74v-4.6h-1.68V12h2.94v5.8h1.62V19h-4.62v-1.2Zm8.916.48c-.133.313-.32.537-.56.67-.24.127-.52.19-.84.19-.3 0-.583-.057-.85-.17-.26-.113-.49-.28-.69-.5-.2-.22-.36-.487-.48-.8a3.134 3.134 0 0 1-.17-1.07v-.16c0-.393.057-.747.17-1.06a2.47 2.47 0 0 1 .46-.8c.194-.22.417-.387.67-.5.26-.12.537-.18.83-.18.354 0 .637.06.85.18.22.12.394.307.52.56h.18v-.6h1.26v3.46c0 .2.09.3.27.3h.19V19h-.86a.8.8 0 0 1-.56-.2.686.686 0 0 1-.21-.52h-.18Zm-1.12-.34c.367 0 .66-.12.88-.36.22-.247.33-.58.33-1v-.12c0-.42-.11-.75-.33-.99-.22-.247-.513-.37-.88-.37-.366 0-.66.123-.88.37-.22.24-.33.57-.33.99v.12c0 .42.11.753.33 1 .22.24.514.36.88.36ZM90.157 19h-1.26v-7h1.26v2.76h.18c.133-.273.327-.483.58-.63.254-.153.577-.23.97-.23.293 0 .57.057.83.17.267.113.497.28.69.5.2.213.357.477.47.79.12.313.18.67.18 1.07v.18c0 .407-.056.767-.17 1.08a2.47 2.47 0 0 1-.46.8 1.95 1.95 0 0 1-.69.49c-.26.107-.543.16-.85.16-.227 0-.423-.023-.59-.07a1.654 1.654 0 0 1-.44-.19c-.12-.08-.223-.17-.31-.27a2.502 2.502 0 0 1-.21-.33h-.18V19Zm1.32-1.06c.394 0 .71-.12.95-.36.247-.247.37-.58.37-1v-.12c0-.42-.123-.75-.37-.99-.24-.247-.556-.37-.95-.37-.393 0-.713.127-.96.38-.24.247-.36.573-.36.98v.12c0 .407.12.737.36.99.247.247.567.37.96.37Zm3.277-.14h1.74v-4.6h-1.68V12h2.94v5.8h1.62V19h-4.62v-1.2Zm6.816-.87c.007.147.04.283.1.41.067.12.154.227.26.32.114.087.24.157.38.21.147.047.3.07.46.07.314 0 .554-.053.72-.16.167-.113.287-.247.36-.4l1.08.6a2.26 2.26 0 0 1-.25.4 1.749 1.749 0 0 1-.42.37 2.215 2.215 0 0 1-.62.28c-.24.073-.523.11-.85.11a2.78 2.78 0 0 1-1.02-.18 2.315 2.315 0 0 1-.8-.52 2.447 2.447 0 0 1-.52-.83 3.204 3.204 0 0 1-.18-1.11v-.06c0-.38.064-.727.19-1.04a2.44 2.44 0 0 1 .54-.8c.227-.22.49-.39.79-.51.307-.127.634-.19.98-.19.427 0 .794.077 1.1.23.307.147.56.337.76.57.2.227.347.48.44.76.094.273.14.54.14.8v.67h-3.64Zm1.19-1.89c-.32 0-.58.083-.78.25-.2.16-.33.347-.39.56h2.34a.881.881 0 0 0-.38-.58c-.206-.153-.47-.23-.79-.23Zm13.914 1.54c0 .413-.07.78-.21 1.1-.14.313-.33.58-.57.8-.24.213-.517.377-.83.49-.307.113-.63.17-.97.17-.34 0-.667-.057-.98-.17a2.553 2.553 0 0 1-.82-.49c-.24-.22-.43-.487-.57-.8a2.72 2.72 0 0 1-.21-1.1v-.12c0-.407.07-.767.21-1.08.14-.32.33-.59.57-.81.24-.22.513-.387.82-.5.313-.113.64-.17.98-.17.34 0 .663.057.97.17a2.372 2.372 0 0 1 1.4 1.31c.14.313.21.673.21 1.08v.12Zm-2.58 1.36c.18 0 .35-.03.51-.09a1.185 1.185 0 0 0 .7-.67c.073-.167.11-.353.11-.56v-.2c0-.207-.037-.39-.11-.55a1.165 1.165 0 0 0-.7-.68 1.44 1.44 0 0 0-.51-.09c-.18 0-.35.03-.51.09a1.238 1.238 0 0 0-.71.68c-.067.16-.1.343-.1.55v.2c0 .207.033.393.1.56a1.238 1.238 0 0 0 .71.67c.16.06.33.09.51.09ZM118.75 19h-1.26v-4.96h1.26v.74h.18c.114-.28.297-.497.55-.65.254-.153.55-.23.89-.23.24 0 .464.04.67.12.214.073.4.19.56.35.16.16.284.363.37.61.094.247.14.54.14.88V19h-1.26v-2.82c0-.353-.086-.63-.26-.83-.166-.207-.41-.31-.73-.31-.373 0-.653.127-.84.38-.18.247-.27.58-.27 1V19Zm9.953-4.96h1.47V12h1.26v2.04h1.79v1.2h-1.79v2.26c0 .2.09.3.27.3h1.34V19h-2.1a.76.76 0 0 1-.56-.22.778.778 0 0 1-.21-.56v-2.98h-1.47v-1.2ZM135.8 19h-1.26v-7h1.26v2.84h.18c.127-.3.313-.53.56-.69.247-.167.55-.25.91-.25.247 0 .473.04.68.12.207.08.387.2.54.36.153.16.273.367.36.62.087.247.13.54.13.88V19h-1.26v-2.82c0-.353-.087-.63-.26-.83-.167-.207-.41-.31-.73-.31-.373 0-.653.127-.84.38-.18.247-.27.58-.27 1V19Zm5.507-2.07c.006.147.04.283.1.41.066.12.153.227.26.32.113.087.24.157.38.21.146.047.3.07.46.07.313 0 .553-.053.72-.16a1.03 1.03 0 0 0 .36-.4l1.08.6a2.32 2.32 0 0 1-.25.4 1.788 1.788 0 0 1-.42.37 2.241 2.241 0 0 1-.62.28c-.24.073-.524.11-.85.11-.374 0-.714-.06-1.02-.18a2.296 2.296 0 0 1-.8-.52 2.432 2.432 0 0 1-.52-.83 3.204 3.204 0 0 1-.18-1.11v-.06c0-.38.063-.727.19-1.04a2.41 2.41 0 0 1 .54-.8c.226-.22.49-.39.79-.51.306-.127.633-.19.98-.19.426 0 .793.077 1.1.23a2.287 2.287 0 0 1 1.2 1.33c.093.273.14.54.14.8v.67h-3.64Zm1.19-1.89c-.32 0-.58.083-.78.25-.2.16-.33.347-.39.56h2.34a.885.885 0 0 0-.38-.58c-.207-.153-.47-.23-.79-.23Z"/></g><path fill-rule="evenodd" clip-rule="evenodd" d="M30.839 16.233c1.03-1.207 2.8-2.133 4.313-2.233.254 1.649-.447 3.264-1.373 4.406-.99 1.226-2.7 2.175-4.353 2.126-.301-1.58.472-3.205 1.413-4.3Zm4.66 4.3c2.015 0 4.148 1.044 5.665 2.843-4.975 2.595-4.169 9.352.858 11.162-.69 1.457-1.022 2.107-1.914 3.398-1.243 1.8-2.994 4.044-5.168 4.06-.893.01-1.48-.246-2.112-.522-.732-.32-1.526-.666-2.932-.658-1.398.006-2.205.348-2.947.663-.649.275-1.248.529-2.149.52-2.172-.017-3.832-2.042-5.075-3.842-3.475-5.033-3.842-10.941-1.698-14.084 1.525-2.231 3.93-3.536 6.19-3.536 1.204 0 2.174.329 3.098.642.842.285 1.646.558 2.553.558.84 0 1.53-.249 2.284-.52.904-.326 1.898-.684 3.348-.684Z" fill="#495567"/><defs><clipPath id="a"><path fill="#fff" transform="translate(54.267 8)" d="M0 0h94.968v39H0z"/></clipPath></defs></svg>